#N canvas 22 22 1094 721 12;
#X floatatom 425 56 5 0 0 0 - - -, f 5;
#X obj 531 44 tgl 100 0 empty empty empty 17 7 0 10 -262144 -1 -1 1
1;
#X obj 393 112 float;
#X obj 443 112 + 1;
#X floatatom 443 138 5 0 0 0 - - -, f 5;
#X obj 234 224 bng 33 250 50 0 empty empty empty 17 7 0 10 -262144
-1 -1;
#X obj 271 230 bng 33 250 50 0 empty empty empty 17 7 0 10 -262144
-1 -1;
#X obj 310 235 bng 33 250 50 0 empty empty empty 17 7 0 10 -262144
-1 -1;
#X obj 348 239 bng 33 250 50 0 empty empty empty 17 7 0 10 -262144
-1 -1;
#X obj 386 241 bng 33 250 50 0 empty empty empty 17 7 0 10 -262144
-1 -1;
#X obj 424 242 bng 33 250 50 0 empty empty empty 17 7 0 10 -262144
-1 -1;
#X obj 463 243 bng 33 250 50 0 empty empty empty 17 7 0 10 -262144
-1 -1;
#X obj 501 243 bng 33 250 50 0 empty empty empty 17 7 0 10 -262144
-1 -1;
#X obj 538 243 bng 33 250 50 0 empty empty empty 17 7 0 10 -262144
-1 -1;
#X obj 576 245 bng 33 250 50 0 empty empty empty 17 7 0 10 -262144
-1 -1;
#X obj 613 243 bng 33 250 50 0 empty empty empty 17 7 0 10 -262144
-1 -1;
#X obj 650 243 bng 33 250 50 0 empty empty empty 17 7 0 10 -262144
-1 -1;
#X text 544 27 sequencer;
#N canvas 245 126 660 186 filters 0;
#X obj 333 18 inlet~;
#X obj 333 116 outlet~;
#X obj 62 66 bp~ 62.5 1;
#X obj 139 66 bp~ 125 1;
#X obj 208 66 bp~ 250 2;
#X obj 279 66 bp~ 395 2;
#X obj 350 66 bp~ 560 3;
#X obj 422 67 bp~ 790 3;
#X obj 494 68 bp~ 1030 4;
#X obj 570 68 bp~ 1375 4;
#X obj 12 67 *~ 0.2;
#X connect 0 0 2 0;
#X connect 0 0 10 0;
#X connect 2 0 3 0;
#X connect 3 0 4 0;
#X connect 4 0 5 0;
#X connect 5 0 6 0;
#X connect 6 0 7 0;
#X connect 7 0 8 0;
#X connect 8 0 9 0;
#X connect 9 0 1 0;
#X connect 10 0 1 0;
#X restore 308 502 pd filters;
#X obj 444 693 dac~;
#N canvas 208 326 920 311 delays 0;
#X obj 421 23 inlet~;
#X obj 420 205 outlet~;
#X obj 20 97 dres~ 62.5 0.1;
#X obj 127 96 dres~ 125 0.1;
#X obj 234 96 dres~ 250 0.1;
#X obj 342 94 dres~ 395 0.1;
#X obj 452 96 dres~ 560 0.1;
#X obj 559 95 dres~ 790 0.1;
#X obj 666 95 dres~ 1030 0.1;
#X obj 773 94 dres~ 1375 0.1;
#X connect 0 0 2 0;
#X connect 0 0 5 0;
#X connect 0 0 9 0;
#X connect 0 0 8 0;
#X connect 0 0 7 0;
#X connect 0 0 6 0;
#X connect 0 0 4 0;
#X connect 0 0 3 0;
#X connect 2 0 1 0;
#X connect 3 0 1 0;
#X connect 4 0 1 0;
#X connect 5 0 1 0;
#X connect 6 0 1 0;
#X connect 7 0 1 0;
#X connect 8 0 1 0;
#X connect 9 0 1 0;
#X restore 308 531 pd delays;
#X obj 171 469 pulse_oversampled;
#X obj 302 467 calculateIndex;
#X obj 695 503 line~;
#X obj 455 631 *~;
#X text 187 511 sound generator;
#X text 692 449 amplitude envelope generator;
#X obj 455 664 *~ 0.2;
#X obj 529 384 line;
#X obj 688 241 bng 34 250 50 0 empty empty empty 17 7 0 10 -262144
-1 -1;
#X msg 329 305 290 200;
#X msg 462 306 200 200;
#X msg 525 309 100 200;
#X msg 395 305 336 200;
#X obj 386 193 select 0 1 2 3 4 5 6 7 8 9 10 11 12 13 14 15;
#X text 488 626 audio output;
#X text 694 531 the first bang of the sequence triggers this envelope
, f 30;
#X text 421 439 sends message to sound generator;
#X text 530 154 click to start;
#X obj 813 229 bng 34 250 50 0 empty empty empty 17 7 0 10 -262144
-1 -1;
#X obj 731 238 bng 34 250 50 0 empty empty empty 17 7 0 10 -262144
-1 -1;
#X obj 772 235 bng 34 250 50 0 empty empty empty 17 7 0 10 -262144
-1 -1;
#X obj 393 137 mod 16;
#X text 56 355 ^^^these are messages containing 'target frequency'
\, 'ramp time', f 32;
#X obj 393 86 metro 200;
#X msg 718 309 20 200;
#X text 858 257 bangs purely for visual aid;
#X msg 589 310 60 200;
#X msg 655 309 20 200;
#X msg 874 308 10 0;
#X msg 836 308 10 0;
#X msg 775 308 10 200;
#X msg 195 303 250 200;
#X msg 262 303 260 200;
#X msg 128 302 240 200;
#X msg 696 478 1 0 \, 0 3000;
#X msg 62 302 245 200;
#X msg 966 309 245 200;
#X msg 912 309 5 2000;
#X connect 0 0 44 1;
#X connect 1 0 44 0;
#X connect 2 0 3 0;
#X connect 2 0 42 0;
#X connect 3 0 2 1;
#X connect 5 0 56 0;
#X connect 5 0 55 0;
#X connect 6 0 54 0;
#X connect 7 0 52 0;
#X connect 8 0 53 0;
#X connect 9 0 30 0;
#X connect 10 0 33 0;
#X connect 11 0 31 0;
#X connect 12 0 32 0;
#X connect 13 0 47 0;
#X connect 14 0 48 0;
#X connect 15 0 45 0;
#X connect 16 0 51 0;
#X connect 18 0 20 0;
#X connect 20 0 24 0;
#X connect 21 0 18 0;
#X connect 22 0 21 1;
#X connect 23 0 24 1;
#X connect 24 0 27 0;
#X connect 27 0 19 1;
#X connect 27 0 19 0;
#X connect 28 0 21 0;
#X connect 28 0 22 0;
#X connect 29 0 50 0;
#X connect 30 0 28 0;
#X connect 31 0 28 0;
#X connect 32 0 28 0;
#X connect 33 0 28 0;
#X connect 34 0 5 0;
#X connect 34 1 6 0;
#X connect 34 2 7 0;
#X connect 34 3 8 0;
#X connect 34 4 9 0;
#X connect 34 5 10 0;
#X connect 34 6 11 0;
#X connect 34 7 12 0;
#X connect 34 8 13 0;
#X connect 34 9 14 0;
#X connect 34 10 15 0;
#X connect 34 11 16 0;
#X connect 34 12 29 0;
#X connect 34 13 40 0;
#X connect 34 14 41 0;
#X connect 34 15 39 0;
#X connect 39 0 57 0;
#X connect 40 0 49 0;
#X connect 41 0 58 0;
#X connect 42 0 4 0;
#X connect 42 0 34 0;
#X connect 44 0 2 0;
#X connect 45 0 28 0;
#X connect 47 0 28 0;
#X connect 48 0 28 0;
#X connect 49 0 28 0;
#X connect 50 0 28 0;
#X connect 51 0 28 0;
#X connect 52 0 28 0;
#X connect 53 0 28 0;
#X connect 54 0 28 0;
#X connect 55 0 23 0;
#X connect 56 0 28 0;
#X connect 57 0 28 0;
#X connect 58 0 28 0;
