#N canvas 286 156 330 379 12;
#X obj 101 311 send~ air;
#X text 216 195 Air;
#X obj 204 216 bng 54 250 50 0 empty empty empty 17 7 0 10 -262144
-1 -1;
#X obj 26 103 noise~;
#X obj 42 146 lop~ 3000;
#X obj 85 221 *~;
#X obj 100 267 *~ 0.1;
#X obj 155 139 line~;
#X msg 184 75 1 0 \, 0 2000;
#X obj 213 161 receive airlock;
#X connect 2 0 8 0;
#X connect 3 0 4 0;
#X connect 4 0 5 0;
#X connect 5 0 6 0;
#X connect 6 0 0 0;
#X connect 7 0 5 1;
#X connect 8 0 7 0;
#X connect 9 0 2 0;
#X coords 0 -1 1 1 80 80 2 191 194;
