#N canvas 261 75 647 537 12;
#X obj 21 -216 noise~;
#X floatatom 71 -214 5 0 0 0 - - -, f 5;
#X obj 48 -185 lop~ 100;
#X text 30 -359 low note \, gets louder as speed increases, f 23;
#X obj 70 -152 lop~ 100;
#X floatatom 148 -204 5 0 0 0 - - -, f 5;
#X obj 173 -306 metro 100;
#X obj 236 -197 osc~;
#X obj 202 -229 + 60;
#X obj 174 -277 random 15;
#X obj 309 -309 metro 100;
#X obj 310 -280 random 15;
#X obj 284 -198 osc~;
#X obj 303 -242 + 80;
#X obj 241 -340 loadbang;
#X floatatom 367 -200 5 0 0 0 - - -, f 5;
#X obj 254 -9 *~;
#X obj 294 34 pvu~;
#X obj 260 -140 *~ 0.3;
#X obj 414 -1 tgl 21 0 empty empty empty 17 7 0 10 -262144 -1 -1 1
1;
#X obj 438 -1 vu 15 120 empty empty -1 -8 0 10 -66577 -1 1 0;
#X text 425 -30 ENGINE;
#X obj 244 114 send~ engine;
#X connect 0 0 2 0;
#X connect 1 0 2 1;
#X connect 2 0 4 0;
#X connect 4 0 16 0;
#X connect 6 0 9 0;
#X connect 7 0 18 0;
#X connect 8 0 7 0;
#X connect 8 0 5 0;
#X connect 9 0 8 0;
#X connect 10 0 11 0;
#X connect 11 0 13 0;
#X connect 12 0 18 0;
#X connect 13 0 12 0;
#X connect 13 0 15 0;
#X connect 14 0 6 0;
#X connect 14 0 10 0;
#X connect 16 0 17 0;
#X connect 16 0 22 0;
#X connect 17 0 20 0;
#X connect 18 0 16 0;
#X connect 19 0 16 1;
#X coords 0 -1 1 1 80 160 2 410 -32;
