#N canvas 85 89 807 686 10;
#X obj 127 49 noise~;
#X obj 343 104 line~;
#X obj 326 144 *~;
#X obj 87 276 *~ 0.99;
#X obj 137 276 / 100;
#X obj 329 459 \$1 50;
#X obj 329 481 line~;
#X obj 87 256 lop~ 5000;
#X obj 329 439 expr 1000 / $f1;
#X obj 148 256 * 100;
#X obj 343 30 inlet;
#X obj 321 685 outlet~;
#X obj 329 419 receive noteValue;
#X obj 187 256 receive lowpassfreq;
#X obj 175 276 receive decay;
#X text 176 42 Noise Generator;
#X obj 182 537 vd~ delayLeft;
#X obj 50 298 delwrite~ delayLeft 1000;
#X obj 53 234 receive~ feedbackLeft;
#X obj 182 565 send~ feedbackLeft;
#X obj 534 273 / 100;
#X obj 570 273 receive decay;
#X obj 450 231 receive~ feedbackRight;
#X obj 424 569 send~ feedbackRight;
#X obj 424 540 vd~ delayRight;
#X obj 532 252 receive pluckpos;
#X obj 484 252 hip~ 0;
#X obj 446 294 delwrite~ delayRight 1000;
#X obj 484 273 *~ 0.99;
#X text 105 211 Delay L;
#X text 503 208 Delay R;
#X text 429 446 Sets delay time of the delays to determine the pitch
of the note that is produced;
#X obj 226 70 osc~ 200;
#X obj 276 87 osc~ 100;
#X msg 344 85 1 0 \, 0 50;
#X obj 201 110 lop~ 200;
#X connect 0 0 35 0;
#X connect 1 0 2 1;
#X connect 2 0 17 0;
#X connect 3 0 17 0;
#X connect 4 0 3 1;
#X connect 5 0 6 0;
#X connect 6 0 16 0;
#X connect 6 0 24 0;
#X connect 7 0 3 0;
#X connect 8 0 5 0;
#X connect 9 0 7 1;
#X connect 10 0 34 0;
#X connect 12 0 8 0;
#X connect 13 0 9 0;
#X connect 14 0 4 0;
#X connect 16 0 19 0;
#X connect 16 0 27 0;
#X connect 16 0 11 0;
#X connect 18 0 7 0;
#X connect 20 0 28 1;
#X connect 21 0 20 0;
#X connect 22 0 26 0;
#X connect 24 0 23 0;
#X connect 24 0 11 0;
#X connect 25 0 26 1;
#X connect 26 0 28 0;
#X connect 28 0 27 0;
#X connect 32 0 2 0;
#X connect 33 0 2 0;
#X connect 34 0 1 0;
#X connect 35 0 2 0;
