#N canvas 34 22 1231 728 12;
#X obj 505 247 pvu~;
#X obj 325 244 dac~;
#X obj 547 304 vu 15 120 empty empty -1 -8 0 10 -66577 -262144 1 0
;
#X obj 293 184 *~ 0.5;
#X obj 374 184 *~ 0.5;
#X obj 509 305 vsl 20 117 0.01 1 1 0 empty empty empty 0 -9 0 10 -262144
-1 -1 10100 1;
#X text 514 279 MASTER;
#X obj 104 456 send speed;
#X obj 211 374 hsl 265 30 0 15 0 0 empty empty empty -2 -8 0 10 -262144
-1 -1 22880 1;
#X text 211 305 SPEED;
#X obj 150 129 receive~ engine;
#X obj 270 130 receive~ motor;
#X obj 396 130 receive~ wheels;
#X obj 518 129 receive~ air;
#X obj 212 393 hradio 30 0 0 8 empty empty empty 0 -8 0 10 -262144
-1 -1 5;
#X obj 511 515 float;
#X obj 552 515 + 1;
#X obj 549 562 mod 8;
#X obj 511 455 loadbang;
#X obj 498 478 metro 370;
#X obj 573 455 expr ((1-$f1)*320)+50;
#X obj 579 610 send wheelBump;
#X obj 452 393 bng 28 250 50 0 empty empty empty 17 7 0 10 -262144
-1 -1;
#X obj 579 588 select 7;
#X obj 500 610 send clock;
#X obj 160 237 receive wheelBump;
#X obj 479 562 mod 8;
#X obj 611 132 receive~ doorBeep;
#X obj 211 411 hsl 265 22 0 7 0 0 empty empty empty -2 -8 0 10 -262144
-1 -1 18857 1;
#X obj 453 525 mod 16;
#X obj 213 274 hsl 134 30 0 1 0 0 empty empty empty -2 -8 0 10 -262144
-1 -1 0 1;
#X connect 0 0 2 0;
#X connect 3 0 1 0;
#X connect 3 0 0 0;
#X connect 4 0 1 1;
#X connect 4 0 0 0;
#X connect 5 0 4 1;
#X connect 5 0 3 1;
#X connect 10 0 3 0;
#X connect 10 0 4 0;
#X connect 11 0 3 0;
#X connect 11 0 4 0;
#X connect 12 0 3 0;
#X connect 12 0 4 0;
#X connect 13 0 3 0;
#X connect 13 0 4 0;
#X connect 15 0 16 0;
#X connect 15 0 17 0;
#X connect 15 0 26 0;
#X connect 15 0 29 0;
#X connect 16 0 15 1;
#X connect 17 0 23 0;
#X connect 17 0 24 0;
#X connect 18 0 19 0;
#X connect 19 0 15 0;
#X connect 20 0 19 1;
#X connect 23 0 21 0;
#X connect 25 0 22 0;
#X connect 26 0 14 0;
#X connect 26 0 28 0;
#X connect 27 0 4 0;
#X connect 27 0 3 0;
#X connect 29 0 8 0;
#X connect 30 0 7 0;
#X connect 30 0 20 0;
#X coords 0 -1 1 1 400 160 2 211 274;
