#N canvas 15 22 1231 729 12;
#X obj 840 241 pvu~;
#X obj 827 192 dac~;
#X obj 1169 386 vu 15 120 empty empty -1 -8 0 10 -66577 -262144 1 0
;
#X obj 796 160 *~ 0.5;
#X obj 877 160 *~ 0.5;
#X obj 1131 387 vsl 20 117 0.01 1 1 0 empty empty empty 0 -9 0 10 -262144
-1 -1 10200 1;
#X text 1136 361 MASTER;
#X obj 563 318 send speed;
#X text 1074 382 SPEED;
#X obj 715 103 receive~ engine;
#X obj 717 43 receive~ motor;
#X obj 836 74 receive~ wheels;
#X obj 954 49 receive~ air;
#X obj 594 432 hradio 41 0 0 10 empty empty empty 0 -8 0 10 -221119
-261338 -1 8;
#X obj 412 149 float;
#X obj 453 149 + 1;
#X obj 272 61 loadbang;
#X obj 413 118 metro 370;
#X obj 269 190 send wheelBump;
#X obj 269 168 select 7;
#X obj 329 259 send clock;
#X obj 950 102 receive~ doorBeep;
#X obj 594 462 hsl 200 52 0 1 0 0 empty empty empty -2 -8 0 10 -262115
-1 -9525 19900 1;
#X obj 1068 404 hsl 48 30 0 1 0 0 empty empty empty -2 -8 0 10 -262144
-1 -1 0 1;
#X obj 799 462 hsl 200 53 0 1 0 0 empty empty empty -2 -8 0 10 -262113
-1 -9525 0 1;
#X obj 416 217 mod 10;
#X obj 1230 798 expr (1-$f1);
#X obj 594 403 hsl 405 29 0 41 0 0 empty empty empty -2 -8 0 10 -262117
-262118 -1 7500 1;
#X obj 653 669 send beep;
#X obj 650 716 send airlock;
#X obj 650 821 float;
#X floatatom 1180 825 5 0 0 0 - - -, f 5;
#X obj 1024 465 bng 34 250 50 0 empty empty empty 17 7 0 10 -262144
-1 -1;
#X msg 741 777 0, f 4;
#X obj 1225 771 clip 0 0.188;
#X obj 692 820 + 0.005;
#X obj 651 779 metro 30;
#X obj 655 742 delay 500;
#X obj 653 693 delay 100;
#X obj 871 661 send beep;
#X obj 868 708 send airlock;
#X obj 869 812 float;
#X obj 869 771 metro 30;
#X obj 873 734 delay 500;
#X obj 871 685 delay 100;
#X obj 910 813 - 0.005;
#X msg 948 772 0.188, f 6;
#X obj 1076 466 bng 34 250 50 0 empty empty empty 17 7 0 10 -262144
-1 -1;
#X msg 829 786 0;
#X obj 447 257 expr (9 - $f1);
#X text 1025 442 open;
#X text 1075 443 close;
#X obj 1026 404 tgl 30 0 empty empty empty 17 7 0 10 -262144 -1 -1
1 1;
#X text 1022 382 start;
#X obj 504 56 expr ((1-$f1)*500)+40;
#X obj 594 504 hsl 405 13 0 9 0 0 empty empty empty -2 -8 0 10 -83221
-83221 -1 4489 1;
#X obj 333 298 float;
#X obj 387 367 expr (9 - $f1);
#X obj 350 334 mod 10;
#X obj 594 500 hradio 10 0 0 41 empty empty empty 0 -8 0 10 -83221
-1 -1 33;
#X obj 374 298 + 1.2;
#X obj 80 302 metro 200;
#X obj 94 340 float;
#X obj 31 227 expr ((1-$f1)*200)+10;
#X obj 135 340 + 3;
#X obj 514 437 doorBeep;
#X obj 66 397 expr (41 - $f1);
#X obj 102 370 mod 41;
#X obj 594 357 hsl 405 46 0 41 0 0 empty empty empty -2 -8 0 10 -221184
-262144 -1 11824 1;
#X obj 514 357 air;
#X obj 233 340 float;
#X obj 251 402 expr (41 - $f1);
#X obj 241 370 mod 41;
#X obj 274 340 + 0.1;
#X connect 0 0 2 0;
#X connect 3 0 1 0;
#X connect 3 0 0 0;
#X connect 4 0 1 1;
#X connect 4 0 0 0;
#X connect 5 0 4 1;
#X connect 5 0 3 1;
#X connect 9 0 3 0;
#X connect 9 0 4 0;
#X connect 10 0 3 0;
#X connect 10 0 4 0;
#X connect 11 0 3 0;
#X connect 11 0 4 0;
#X connect 12 0 3 0;
#X connect 12 0 4 0;
#X connect 14 0 15 0;
#X connect 14 0 25 0;
#X connect 15 0 14 1;
#X connect 16 0 17 0;
#X connect 16 0 61 0;
#X connect 17 0 14 0;
#X connect 17 0 56 0;
#X connect 19 0 18 0;
#X connect 21 0 4 0;
#X connect 21 0 3 0;
#X connect 23 0 7 0;
#X connect 23 0 54 0;
#X connect 23 0 63 0;
#X connect 25 0 19 0;
#X connect 25 0 20 0;
#X connect 25 0 49 0;
#X connect 26 0 22 0;
#X connect 30 0 34 0;
#X connect 30 0 35 0;
#X connect 32 0 28 0;
#X connect 32 0 37 0;
#X connect 32 0 38 0;
#X connect 33 0 30 0;
#X connect 33 0 42 0;
#X connect 34 0 31 0;
#X connect 34 0 26 0;
#X connect 34 0 24 0;
#X connect 35 0 30 1;
#X connect 36 0 30 0;
#X connect 37 0 33 0;
#X connect 37 0 36 0;
#X connect 38 0 29 0;
#X connect 41 0 45 0;
#X connect 41 0 34 0;
#X connect 42 0 41 0;
#X connect 43 0 46 0;
#X connect 43 0 42 0;
#X connect 43 0 48 0;
#X connect 44 0 40 0;
#X connect 45 0 41 1;
#X connect 46 0 41 0;
#X connect 47 0 39 0;
#X connect 47 0 44 0;
#X connect 47 0 43 0;
#X connect 48 0 36 0;
#X connect 49 0 13 0;
#X connect 52 0 17 0;
#X connect 52 0 61 0;
#X connect 54 0 17 1;
#X connect 56 0 58 0;
#X connect 56 0 60 0;
#X connect 57 0 55 0;
#X connect 58 0 57 0;
#X connect 60 0 56 1;
#X connect 61 0 62 0;
#X connect 61 0 70 0;
#X connect 62 0 64 0;
#X connect 62 0 67 0;
#X connect 63 0 61 1;
#X connect 64 0 62 1;
#X connect 66 0 59 0;
#X connect 67 0 66 0;
#X connect 70 0 72 0;
#X connect 70 0 73 0;
#X connect 71 0 68 0;
#X connect 72 0 71 0;
#X connect 73 0 70 1;
#X coords 0 -1 1 1 720 160 2 514 357;
