#N canvas 115 26 1081 650 12;
#X obj 335 382 osc~;
#X floatatom 247 268 5 0 0 0 - - -, f 5;
#X obj 334 291 +;
#X floatatom 260 332 5 0 0 0 - - -, f 5;
#X obj 292 206 metro 100;
#X obj 292 236 random 20;
#X obj 368 260 expr ($f1*200);
#X obj 333 327 clip 100 180;
#X obj 536 559 *~;
#X obj 761 210 pvu~;
#X obj 748 277 tgl 21 0 empty empty empty 17 7 0 10 -262144 -1 -1 1
1;
#X obj 774 277 vu 15 120 empty empty -1 -8 0 10 -66577 -1 1 0;
#X obj 573 127 receive speed;
#X text 763 248 MOTOR;
#X obj 538 594 send~ motor;
#X msg 434 338 0.25;
#X obj 408 455 *~;
#X obj 479 386 osc~;
#X obj 524 323 expr $f1*5;
#X obj 489 526 *~ 0.5;
#X connect 0 0 16 0;
#X connect 2 0 3 0;
#X connect 2 0 7 0;
#X connect 4 0 5 0;
#X connect 5 0 1 0;
#X connect 5 0 2 1;
#X connect 6 0 2 0;
#X connect 7 0 0 0;
#X connect 8 0 9 0;
#X connect 8 0 14 0;
#X connect 9 0 11 0;
#X connect 10 0 8 1;
#X connect 10 0 4 0;
#X connect 12 0 6 0;
#X connect 12 0 18 0;
#X connect 15 0 0 1;
#X connect 16 0 19 0;
#X connect 17 0 16 1;
#X connect 18 0 17 0;
#X connect 19 0 8 0;
#X coords 0 -1 1 1 80 160 2 746 246;
