#N canvas 211 163 637 489 12;
#X obj 229 342 dac~;
#X text 232 19 speed;
#X obj 100 52 hsl 287 47 0.01 1 0 0 empty empty empty -2 -8 0 10 -253687
-1 -1 0 1;
#N canvas 323 148 450 369 window 0;
#X obj 160 53 inlet~;
#X obj 160 253 outlet~;
#X obj 378 117 inlet;
#X text 375 92 on/off;
#X obj 248 188 *~;
#X obj 302 100 noise~;
#X obj 268 142 *~ 0.002;
#X connect 0 0 1 0;
#X connect 0 0 4 0;
#X connect 2 0 4 1;
#X connect 4 0 1 0;
#X connect 5 0 6 0;
#X connect 6 0 4 0;
#X restore 240 289 pd window;
#X obj 311 284 tgl 30 0 empty empty empty 17 7 0 10 -241269 -1 -1 0
1;
#N canvas 448 64 450 323 clattering 0;
#X obj 130 38 inlet~;
#X obj 188 195 outlet~;
#X obj 249 40 inlet;
#X obj 196 40 inlet;
#X restore 245 148 pd clattering;
#N canvas 314 207 450 323 air 0;
#X obj 191 281 outlet~;
#X obj 268 98 inlet;
#X obj 126 100 noise~;
#X obj 191 237 *~;
#X obj 233 183 line~;
#X obj 191 259 *~ 0.05;
#X msg 236 132 0.9 0 \, 0 2000;
#X connect 1 0 6 0;
#X connect 2 0 3 0;
#X connect 3 0 5 0;
#X connect 4 0 3 1;
#X connect 5 0 0 0;
#X connect 6 0 4 0;
#X restore 421 146 pd air, f 7;
#N canvas 216 36 816 659 brakes 0;
#X obj 394 80 inlet;
#N canvas 245 126 660 186 filters 0;
#X obj 333 18 inlet~;
#X obj 333 116 outlet~;
#X obj 62 66 bp~ 62.5 1;
#X obj 139 66 bp~ 125 1;
#X obj 208 66 bp~ 250 2;
#X obj 279 66 bp~ 395 2;
#X obj 350 66 bp~ 560 3;
#X obj 422 67 bp~ 790 3;
#X obj 494 68 bp~ 1030 4;
#X obj 570 68 bp~ 1375 4;
#X obj 12 67 *~ 0.2;
#X connect 0 0 2 0;
#X connect 0 0 10 0;
#X connect 2 0 3 0;
#X connect 3 0 4 0;
#X connect 4 0 5 0;
#X connect 5 0 6 0;
#X connect 6 0 7 0;
#X connect 7 0 8 0;
#X connect 8 0 9 0;
#X connect 9 0 1 0;
#X connect 10 0 1 0;
#X restore 338 386 pd filters;
#N canvas 208 326 920 311 delays 0;
#X obj 421 23 inlet~;
#X obj 420 205 outlet~;
#X obj 20 97 dres~ 62.5 0.1;
#X obj 127 96 dres~ 125 0.1;
#X obj 234 96 dres~ 250 0.1;
#X obj 342 94 dres~ 395 0.1;
#X obj 452 96 dres~ 560 0.1;
#X obj 559 95 dres~ 790 0.1;
#X obj 666 95 dres~ 1030 0.1;
#X obj 773 94 dres~ 1375 0.1;
#X connect 0 0 2 0;
#X connect 0 0 5 0;
#X connect 0 0 9 0;
#X connect 0 0 8 0;
#X connect 0 0 7 0;
#X connect 0 0 6 0;
#X connect 0 0 4 0;
#X connect 0 0 3 0;
#X connect 2 0 1 0;
#X connect 3 0 1 0;
#X connect 4 0 1 0;
#X connect 5 0 1 0;
#X connect 6 0 1 0;
#X connect 7 0 1 0;
#X connect 8 0 1 0;
#X connect 9 0 1 0;
#X restore 338 415 pd delays;
#X obj 201 353 pulse_oversampled;
#X obj 332 351 calculateIndex;
#X text 217 395 sound generator;
#X obj 349 594 outlet~;
#X obj 549 551 inlet;
#X text 546 526 on/off;
#X obj 513 551 *~;
#X obj 394 449 *~ 0.2;
#X floatatom 570 270 5 0 0 0 - - -, f 5;
#X floatatom 353 289 5 0 0 0 - - -, f 5;
#X obj 548 217 clip 0 0.2;
#X obj 182 92 bng 43 250 50 0 empty empty empty 17 7 0 10 -262144 -1
-1;
#X floatatom 180 234 5 0 0 0 - - -, f 5;
#X obj 282 270 +;
#X obj 205 162 metro 100;
#X obj 205 192 random 50;
#X obj 504 153 expr (1 - $f1)*0.25;
#X obj 349 576 *~ 0.02;
#X obj 287 138 expr ((1-$f1)*500)+1200;
#X connect 0 0 17 0;
#X connect 0 0 19 0;
#X connect 0 0 21 0;
#X connect 1 0 2 0;
#X connect 2 0 10 0;
#X connect 3 0 1 0;
#X connect 4 0 3 1;
#X connect 7 0 9 1;
#X connect 9 0 20 0;
#X connect 10 0 9 0;
#X connect 13 0 11 0;
#X connect 13 0 10 1;
#X connect 14 0 17 0;
#X connect 16 0 3 0;
#X connect 16 0 4 0;
#X connect 16 0 12 0;
#X connect 17 0 18 0;
#X connect 18 0 15 0;
#X connect 18 0 16 0;
#X connect 19 0 13 0;
#X connect 20 0 6 0;
#X connect 21 0 16 1;
#X restore 346 146 pd brakes;
#X obj 61 129 tgl 15 0 empty empty empty 17 7 0 10 -262144 -1 -1 0
1;
#X obj 123 128 tgl 15 0 empty empty empty 17 7 0 10 -262144 -1 -1 0
1;
#X obj 366 124 tgl 15 0 empty empty empty 17 7 0 10 -262144 -1 -1 0
1;
#X obj 240 313 *~ 0.5;
#X obj 175 126 tgl 15 0 empty empty empty 17 7 0 10 -262144 -1 -1 0
1;
#X obj 420 36 bng 76 250 50 0 empty empty empty 17 7 0 10 -262144 -1
-1;
#N canvas 391 156 722 530 engine 0;
#X obj 400 450 outlet~;
#X obj 407 412 inlet;
#X obj 81 248 noise~;
#X floatatom 131 250 5 0 0 0 - - -, f 5;
#X text 404 387 on/off;
#X obj 108 279 lop~ 100;
#X text 170 26 low note \, gets louder as speed increases, f 23;
#X obj 130 312 lop~ 100;
#X floatatom 208 260 5 0 0 0 - - -, f 5;
#X obj 233 158 metro 100;
#X obj 296 267 osc~;
#X obj 262 235 + 60;
#X obj 234 187 random 15;
#X obj 369 155 metro 100;
#X obj 370 184 random 15;
#X obj 344 266 osc~;
#X obj 363 222 + 80;
#X obj 248 96 loadbang;
#X floatatom 427 264 5 0 0 0 - - -, f 5;
#X obj 344 417 *~;
#X obj 320 324 *~ 0.5;
#X connect 1 0 19 1;
#X connect 2 0 5 0;
#X connect 3 0 5 1;
#X connect 5 0 7 0;
#X connect 7 0 19 0;
#X connect 9 0 12 0;
#X connect 10 0 20 0;
#X connect 11 0 10 0;
#X connect 11 0 8 0;
#X connect 12 0 11 0;
#X connect 13 0 14 0;
#X connect 14 0 16 0;
#X connect 15 0 20 0;
#X connect 16 0 15 0;
#X connect 16 0 18 0;
#X connect 17 0 9 0;
#X connect 17 0 13 0;
#X connect 19 0 0 0;
#X connect 20 0 19 0;
#X restore 23 150 pd engine;
#N canvas 57 72 1187 556 wheels 0;
#X obj 509 449 outlet~;
#X obj 509 331 karplusStrongSynthesis;
#X obj 686 268 send noteValue;
#X obj 686 324 send lowpassfreq;
#X obj 687 383 send decay;
#X obj 691 428 hsl 128 15 0 3000 0 0 empty empty empty -2 -8 0 10 -260097
-1 -1 0 1;
#X obj 726 447 send pluckpos;
#X floatatom 688 448 5 0 0 0 - - -, f 5;
#X text 95 363 Sends and receives signal from the Karplus Strong model
;
#X text 411 435 Audio Output;
#X text 779 243 Sends the frequency of the note to be played;
#X text 787 296 Sends the low pass filter's cutoff frequency;
#X text 751 358 Sends the amount of attenuation for the delays;
#X text 827 429 Sends the plucking position;
#X msg 685 245 8;
#X msg 687 359 17;
#X obj 443 169 inlet;
#X obj 336 193 inlet;
#X obj 375 264 metro 300;
#X obj 509 357 lop~ 1000;
#X obj 509 399 *~ 0.2;
#X msg 685 297 20;
#X obj 426 213 expr ((1-$f1)*3000)+300;
#X obj 651 194 loadbang;
#X connect 1 0 19 0;
#X connect 5 0 6 0;
#X connect 5 0 7 0;
#X connect 14 0 2 0;
#X connect 15 0 4 0;
#X connect 16 0 22 0;
#X connect 17 0 18 0;
#X connect 18 0 1 0;
#X connect 19 0 20 0;
#X connect 20 0 0 0;
#X connect 21 0 3 0;
#X connect 22 0 18 1;
#X connect 23 0 14 0;
#X connect 23 0 7 0;
#X connect 23 0 15 0;
#X connect 23 0 21 0;
#X restore 171 149 pd wheels;
#N canvas 456 186 448 437 motor 0;
#X obj 306 347 outlet~;
#X obj 155 76 inlet;
#X obj 376 47 inlet;
#X text 373 22 on/off;
#X obj 106 252 osc~;
#X obj 15 15 bng 43 250 50 0 empty empty empty 17 7 0 10 -262144 -1
-1;
#X floatatom 18 138 5 0 0 0 - - -, f 5;
#X obj 105 161 +;
#X floatatom 31 202 5 0 0 0 - - -, f 5;
#X obj 63 76 metro 100;
#X obj 63 106 random 20;
#X obj 163 115 expr ($f1*200);
#X obj 106 211 clip 100 180;
#X obj 287 320 *~;
#X obj 212 287 *~ 0.2;
#X connect 1 0 11 0;
#X connect 2 0 9 0;
#X connect 2 0 13 1;
#X connect 4 0 14 0;
#X connect 5 0 9 0;
#X connect 7 0 8 0;
#X connect 7 0 12 0;
#X connect 9 0 10 0;
#X connect 10 0 6 0;
#X connect 10 0 7 0;
#X connect 11 0 7 1;
#X connect 12 0 4 0;
#X connect 13 0 0 0;
#X connect 14 0 13 0;
#X restore 99 149 pd motor;
#X connect 2 0 16 0;
#X connect 2 0 7 0;
#X connect 2 0 5 2;
#X connect 2 0 15 1;
#X connect 3 0 11 0;
#X connect 4 0 3 1;
#X connect 5 0 3 0;
#X connect 6 0 3 0;
#X connect 7 0 3 0;
#X connect 8 0 14 0;
#X connect 9 0 16 1;
#X connect 10 0 7 1;
#X connect 11 0 0 0;
#X connect 11 0 0 1;
#X connect 12 0 15 0;
#X connect 13 0 6 0;
#X connect 14 0 3 0;
#X connect 15 0 3 0;
#X connect 16 0 3 0;
