#N canvas 77 51 868 430 12;
#X obj 397 382 dac~;
#X obj 390 352 *~ 0.5;
#X text 392 411 master volume;
#X obj 466 347 vsl 20 50 0 1 0 0 empty empty empty 0 -9 0 10 -253687
-1 -1 4900 1;
#X text 396 27 speed;
#X obj 91 55 hsl 691 47 0 1 0 0 empty empty empty -2 -8 0 10 -253687
-1 -1 12650 1;
#N canvas 418 62 450 323 window 0;
#X obj 172 54 inlet~;
#X obj 199 217 outlet~;
#X obj 243 55 inlet;
#X connect 0 0 1 0;
#X restore 390 296 pd window;
#X obj 461 291 tgl 30 0 empty empty empty 17 7 0 10 -241269 -1 -1 1
1;
#N canvas 175 317 722 392 wheels 1;
#X obj 395 304 outlet~;
#X obj 267 50 inlet;
#X obj 409 273 inlet;
#X obj 28 163 noise~;
#X floatatom 78 165 5 0 0 0 - - -, f 5;
#X text 406 248 on/off;
#X obj 373 273 *~;
#X obj 129 261 *~ 1;
#X obj 72 46 osc~ 50;
#X obj 108 74 *~ 1;
#X obj 55 194 lop~ 100;
#X text 25 5 low note \, gets louder as speed increases, f 23;
#X obj 77 227 lop~ 100;
#X obj 280 77 exp $f1 + 2;
#X connect 1 0 9 1;
#X connect 1 0 13 0;
#X connect 2 0 6 1;
#X connect 3 0 10 0;
#X connect 4 0 10 1;
#X connect 6 0 0 0;
#X connect 7 0 6 0;
#X connect 8 0 9 0;
#X connect 9 0 6 0;
#X connect 10 0 12 0;
#X connect 12 0 7 0;
#X connect 13 0 7 1;
#X restore 111 114 pd wheels;
#N canvas 709 263 450 346 engine 0;
#X obj 354 299 outlet~;
#X obj 155 76 inlet;
#X obj 376 47 inlet;
#X text 373 22 on/off;
#X obj 335 271 *~;
#X obj 105 190 osc~;
#X obj 15 15 bng 43 250 50 0 empty empty empty 17 7 0 10 -262144 -1
-1;
#X floatatom 18 138 5 0 0 0 - - -, f 5;
#X obj 105 161 +;
#X floatatom 31 202 5 0 0 0 - - -, f 5;
#X obj 154 103 expr ($f1*300) + 100;
#X obj 112 213 *~ 0.2;
#X obj 63 76 metro 100;
#X obj 63 106 random 20;
#X connect 1 0 10 0;
#X connect 2 0 4 1;
#X connect 2 0 12 0;
#X connect 4 0 0 0;
#X connect 5 0 11 0;
#X connect 6 0 12 0;
#X connect 8 0 5 0;
#X connect 8 0 9 0;
#X connect 10 0 8 1;
#X connect 11 0 4 0;
#X connect 12 0 13 0;
#X connect 13 0 7 0;
#X connect 13 0 8 0;
#X restore 227 116 pd engine;
#N canvas 448 64 450 323 bumps 0;
#X obj 130 38 inlet~;
#X obj 188 195 outlet~;
#X obj 249 40 inlet;
#X obj 194 39 inlet;
#X restore 350 115 pd bumps;
#N canvas 448 64 450 323 clattering 0;
#X obj 130 38 inlet~;
#X obj 188 195 outlet~;
#X obj 249 40 inlet;
#X obj 196 40 inlet;
#X restore 463 115 pd clattering;
#N canvas 448 64 450 323 air 0;
#X obj 130 38 inlet~;
#X obj 190 294 outlet~;
#X obj 249 40 inlet;
#X obj 194 39 inlet;
#X restore 733 116 pd air, f 7;
#N canvas 448 64 450 323 brakes 0;
#X obj 130 38 inlet~;
#X obj 188 195 outlet~;
#X obj 249 40 inlet;
#X obj 195 37 inlet;
#X restore 614 116 pd brakes;
#X obj 95 117 tgl 15 0 empty empty empty 17 7 0 10 -262144 -1 -1 1
1;
#X obj 208 117 tgl 15 0 empty empty empty 17 7 0 10 -262144 -1 -1 1
1;
#X obj 126 151 vsl 20 50 0 1 0 0 empty empty empty 0 -9 0 10 -253687
-1 -1 0 1;
#X obj 246 149 vsl 20 50 0 1 0 0 empty empty empty 0 -9 0 10 -253687
-1 -1 0 1;
#X obj 372 148 vsl 20 50 0 1 0 0 empty empty empty 0 -9 0 10 -253687
-1 -1 0 1;
#X obj 506 145 vsl 20 50 0 1 0 0 empty empty empty 0 -9 0 10 -253687
-1 -1 0 1;
#X obj 639 144 vsl 20 50 0 1 0 0 empty empty empty 0 -9 0 10 -253687
-1 -1 0 1;
#X obj 751 143 vsl 20 50 0 1 0 0 empty empty empty 0 -9 0 10 -253687
-1 -1 0 1;
#X connect 1 0 0 1;
#X connect 1 0 0 0;
#X connect 3 0 1 1;
#X connect 5 0 8 0;
#X connect 5 0 13 2;
#X connect 5 0 12 2;
#X connect 5 0 11 2;
#X connect 5 0 10 2;
#X connect 5 0 9 0;
#X connect 6 0 1 0;
#X connect 7 0 6 1;
#X connect 8 0 6 0;
#X connect 9 0 6 0;
#X connect 10 0 6 0;
#X connect 11 0 6 0;
#X connect 12 0 6 0;
#X connect 13 0 6 0;
#X connect 14 0 8 1;
#X connect 15 0 9 1;
