#N canvas 37 22 797 335 12;
#X obj 364 253 dac~;
#X obj 357 223 *~ 0.5;
#X text 359 282 master volume;
#X obj 434 219 vsl 20 50 0 1 0 0 empty empty empty 0 -9 0 10 -253687
-1 -1 950 1;
#X text 372 32 speed;
#X obj 323 54 hsl 128 30 0 127 0 0 empty empty empty -2 -8 0 10 -253687
-1 -1 12700 1;
#N canvas 418 62 450 323 window 0;
#X obj 172 54 inlet~;
#X obj 199 217 outlet~;
#X obj 243 55 inlet;
#X restore 357 167 pd window;
#X obj 428 162 tgl 30 0 empty empty empty 17 7 0 10 -241269 -1 -1 1
1;
#N canvas 347 130 450 346 wheels 0;
#X obj 130 38 inlet~;
#X obj 188 195 outlet~;
#X obj 226 39 inlet;
#X obj 307 39 inlet;
#X restore 51 109 pd wheels;
#N canvas 448 64 450 323 engine 0;
#X obj 130 38 inlet~;
#X obj 188 195 outlet~;
#X obj 249 40 inlet;
#X obj 196 37 inlet;
#X restore 168 111 pd engine;
#N canvas 448 64 450 323 bumps 0;
#X obj 130 38 inlet~;
#X obj 188 195 outlet~;
#X obj 249 40 inlet;
#X obj 194 39 inlet;
#X restore 291 110 pd bumps;
#N canvas 448 64 450 323 clattering 0;
#X obj 130 38 inlet~;
#X obj 188 195 outlet~;
#X obj 249 40 inlet;
#X obj 196 40 inlet;
#X restore 404 110 pd clattering;
#N canvas 448 64 450 323 air 0;
#X obj 130 38 inlet~;
#X obj 190 294 outlet~;
#X obj 249 40 inlet;
#X obj 194 39 inlet;
#X restore 674 111 pd air, f 7;
#N canvas 448 64 450 323 brakes 0;
#X obj 130 38 inlet~;
#X obj 188 195 outlet~;
#X obj 249 40 inlet;
#X obj 195 37 inlet;
#X restore 555 111 pd brakes;
#X connect 1 0 0 1;
#X connect 1 0 0 0;
#X connect 3 0 1 1;
#X connect 5 0 8 1;
#X connect 5 0 13 2;
#X connect 5 0 12 2;
#X connect 5 0 11 2;
#X connect 5 0 10 2;
#X connect 5 0 9 2;
#X connect 6 0 1 0;
#X connect 7 0 6 1;
#X connect 8 0 6 0;
#X connect 9 0 6 0;
#X connect 10 0 6 0;
#X connect 11 0 6 0;
#X connect 12 0 6 0;
#X connect 13 0 6 0;
