#N canvas 212 234 667 209 12;
#X obj 451 148 dac~;
#X text 622 13 speed;
#X obj 540 13 hsl 74 21 0.01 1 0 0 empty empty empty -2 -8 0 10 -262144
-1 -1 4900 1;
#N canvas 314 207 450 323 air 0;
#X obj 21 222 outlet~;
#X obj 162 13 inlet;
#X obj 20 15 noise~;
#X obj 85 152 *~;
#X obj 127 98 line~;
#X obj 86 176 *~ 0.05;
#X msg 130 47 0.9 0 \, 0 2000;
#X obj 113 214 pvu~;
#X obj 113 243 outlet;
#X connect 1 0 6 0;
#X connect 2 0 3 0;
#X connect 3 0 5 0;
#X connect 4 0 3 1;
#X connect 5 0 0 0;
#X connect 5 0 7 0;
#X connect 6 0 4 0;
#X connect 7 0 8 0;
#X restore 368 14 pd air, f 7;
#X obj 369 143 bng 25 250 50 0 empty empty empty 17 7 0 10 -262144
-1 -1;
#X obj 13 147 tgl 21 0 empty empty empty 17 7 0 10 -262144 -1 -1 1
1;
#X obj 37 44 vu 15 120 empty empty -1 -8 0 10 -66577 -1 1 0;
#X obj 86 147 tgl 21 0 empty empty empty 17 7 0 10 -262144 -1 -1 0
1;
#X obj 110 44 vu 15 120 empty empty -1 -8 0 10 -66577 -1 1 0;
#X obj 157 147 tgl 21 0 empty empty empty 17 7 0 10 -262144 -1 -1 1
1;
#X obj 181 44 vu 15 120 empty empty -1 -8 0 10 -66577 -1 1 0;
#X obj 229 147 tgl 21 0 empty empty empty 17 7 0 10 -262144 -1 -1 0
1;
#X obj 253 44 vu 15 120 empty empty -1 -8 0 10 -66577 -1 1 0;
#X obj 300 147 tgl 21 0 empty empty empty 17 7 0 10 -262144 -1 -1 0
1;
#X obj 324 44 vu 15 120 empty empty -1 -8 0 10 -66577 -1 1 0;
#X obj 488 44 vu 15 120 empty empty -1 -8 0 10 -66577 -1 1 0;
#X obj 397 44 vu 15 120 empty empty -1 -8 0 10 -66577 -1 1 0;
#N canvas 448 64 450 323 cltr 0;
#X obj 157 205 outlet~;
#X obj 249 40 inlet;
#X obj 127 42 inlet;
#X obj 271 200 pvu~;
#X obj 271 229 outlet;
#X connect 3 0 4 0;
#X restore 229 14 pd cltr;
#N canvas 40 69 1187 556 whls 1;
#X obj 509 449 outlet~;
#X obj 509 331 karplusStrongSynthesis;
#X obj 686 268 send noteValue;
#X obj 686 324 send lowpassfreq;
#X obj 687 383 send decay;
#X obj 691 428 hsl 128 15 0 3000 0 0 empty empty empty -2 -8 0 10 -260097
-1 -1 0 1;
#X obj 726 447 send pluckpos;
#X floatatom 688 448 5 0 0 0 - - -, f 5;
#X text 95 363 Sends and receives signal from the Karplus Strong model
;
#X text 411 435 Audio Output;
#X text 779 243 Sends the frequency of the note to be played;
#X text 787 296 Sends the low pass filter's cutoff frequency;
#X text 751 358 Sends the amount of attenuation for the delays;
#X text 827 429 Sends the plucking position;
#X msg 685 245 8;
#X msg 687 359 17;
#X obj 443 169 inlet;
#X obj 336 193 inlet;
#X obj 375 264 metro 300;
#X obj 509 357 lop~ 1000;
#X msg 685 297 20;
#X obj 651 194 loadbang;
#X obj 589 448 pvu~;
#X obj 589 477 outlet;
#X obj 509 399 *~ 0.5;
#X obj 426 213 expr ((1-$f1)*3200)+500;
#X connect 1 0 19 0;
#X connect 5 0 6 0;
#X connect 5 0 7 0;
#X connect 14 0 2 0;
#X connect 15 0 4 0;
#X connect 16 0 25 0;
#X connect 17 0 18 0;
#X connect 18 0 1 0;
#X connect 19 0 24 0;
#X connect 20 0 3 0;
#X connect 21 0 14 0;
#X connect 21 0 7 0;
#X connect 21 0 15 0;
#X connect 21 0 20 0;
#X connect 22 0 23 0;
#X connect 24 0 0 0;
#X connect 24 0 22 0;
#X connect 25 0 18 1;
#X restore 157 14 pd whls;
#N canvas 456 186 448 437 motr 0;
#X obj 244 359 outlet~;
#X obj 294 70 inlet;
#X obj 204 40 inlet;
#X text 201 15 on/off;
#X obj 106 252 osc~;
#X obj 15 15 bng 43 250 50 0 empty empty empty 17 7 0 10 -262144 -1
-1;
#X floatatom 18 138 5 0 0 0 - - -, f 5;
#X obj 105 161 +;
#X floatatom 31 202 5 0 0 0 - - -, f 5;
#X obj 63 76 metro 100;
#X obj 63 106 random 20;
#X obj 302 109 expr ($f1*200);
#X obj 106 211 clip 100 180;
#X obj 287 320 *~;
#X obj 212 287 *~ 0.2;
#X obj 319 360 pvu~;
#X obj 319 389 outlet;
#X connect 1 0 11 0;
#X connect 2 0 9 0;
#X connect 2 0 13 1;
#X connect 4 0 14 0;
#X connect 5 0 9 0;
#X connect 7 0 8 0;
#X connect 7 0 12 0;
#X connect 9 0 10 0;
#X connect 10 0 6 0;
#X connect 10 0 7 0;
#X connect 11 0 7 1;
#X connect 12 0 4 0;
#X connect 13 0 0 0;
#X connect 13 0 15 0;
#X connect 14 0 13 0;
#X connect 15 0 16 0;
#X restore 85 14 pd motr;
#N canvas 146 116 722 553 engi 0;
#X obj 272 479 outlet~;
#X obj 407 412 inlet;
#X obj 81 248 noise~;
#X floatatom 131 250 5 0 0 0 - - -, f 5;
#X text 404 387 on/off;
#X obj 108 279 lop~ 100;
#X text 170 26 low note \, gets louder as speed increases, f 23;
#X obj 130 312 lop~ 100;
#X floatatom 208 260 5 0 0 0 - - -, f 5;
#X obj 233 158 metro 100;
#X obj 296 267 osc~;
#X obj 262 235 + 60;
#X obj 234 187 random 15;
#X obj 369 155 metro 100;
#X obj 370 184 random 15;
#X obj 344 266 osc~;
#X obj 363 222 + 80;
#X obj 248 96 loadbang;
#X floatatom 427 264 5 0 0 0 - - -, f 5;
#X obj 323 400 *~;
#X obj 348 451 pvu~;
#X obj 320 324 *~ 0.3;
#X obj 348 480 outlet;
#X connect 1 0 19 1;
#X connect 2 0 5 0;
#X connect 3 0 5 1;
#X connect 5 0 7 0;
#X connect 7 0 19 0;
#X connect 9 0 12 0;
#X connect 10 0 21 0;
#X connect 11 0 10 0;
#X connect 11 0 8 0;
#X connect 12 0 11 0;
#X connect 13 0 14 0;
#X connect 14 0 16 0;
#X connect 15 0 21 0;
#X connect 16 0 15 0;
#X connect 16 0 18 0;
#X connect 17 0 9 0;
#X connect 17 0 13 0;
#X connect 19 0 0 0;
#X connect 19 0 20 0;
#X connect 20 0 22 0;
#X connect 21 0 19 0;
#X restore 13 14 pd engi;
#N canvas 254 92 816 659 brks 0;
#X obj 394 80 inlet;
#N canvas 245 126 660 186 filters 0;
#X obj 333 18 inlet~;
#X obj 333 116 outlet~;
#X obj 62 66 bp~ 62.5 1;
#X obj 139 66 bp~ 125 1;
#X obj 208 66 bp~ 250 2;
#X obj 279 66 bp~ 395 2;
#X obj 350 66 bp~ 560 3;
#X obj 422 67 bp~ 790 3;
#X obj 494 68 bp~ 1030 4;
#X obj 570 68 bp~ 1375 4;
#X obj 12 67 *~ 0.2;
#X connect 0 0 2 0;
#X connect 0 0 10 0;
#X connect 2 0 3 0;
#X connect 3 0 4 0;
#X connect 4 0 5 0;
#X connect 5 0 6 0;
#X connect 6 0 7 0;
#X connect 7 0 8 0;
#X connect 8 0 9 0;
#X connect 9 0 1 0;
#X connect 10 0 1 0;
#X restore 338 386 pd filters;
#N canvas 208 326 920 311 delays 0;
#X obj 421 23 inlet~;
#X obj 420 205 outlet~;
#X obj 20 97 dres~ 62.5 0.1;
#X obj 127 96 dres~ 125 0.1;
#X obj 234 96 dres~ 250 0.1;
#X obj 342 94 dres~ 395 0.1;
#X obj 452 96 dres~ 560 0.1;
#X obj 559 95 dres~ 790 0.1;
#X obj 666 95 dres~ 1030 0.1;
#X obj 773 94 dres~ 1375 0.1;
#X connect 0 0 2 0;
#X connect 0 0 5 0;
#X connect 0 0 9 0;
#X connect 0 0 8 0;
#X connect 0 0 7 0;
#X connect 0 0 6 0;
#X connect 0 0 4 0;
#X connect 0 0 3 0;
#X connect 2 0 1 0;
#X connect 3 0 1 0;
#X connect 4 0 1 0;
#X connect 5 0 1 0;
#X connect 6 0 1 0;
#X connect 7 0 1 0;
#X connect 8 0 1 0;
#X connect 9 0 1 0;
#X restore 338 415 pd delays;
#X obj 201 353 pulse_oversampled;
#X obj 332 351 calculateIndex;
#X text 217 395 sound generator;
#X obj 347 625 outlet~;
#X obj 147 518 inlet;
#X text 144 493 on/off;
#X obj 111 518 *~;
#X obj 394 449 *~ 0.2;
#X floatatom 570 270 5 0 0 0 - - -, f 5;
#X floatatom 353 289 5 0 0 0 - - -, f 5;
#X obj 548 217 clip 0 0.2;
#X obj 182 92 bng 43 250 50 0 empty empty empty 17 7 0 10 -262144 -1
-1;
#X floatatom 180 234 5 0 0 0 - - -, f 5;
#X obj 282 270 +;
#X obj 205 162 metro 100;
#X obj 205 192 random 50;
#X obj 504 153 expr (1 - $f1)*0.25;
#X obj 349 576 *~ 0.02;
#X obj 287 138 expr ((1-$f1)*500)+1200;
#X obj 449 617 pvu~;
#X obj 449 646 outlet;
#X connect 0 0 17 0;
#X connect 0 0 19 0;
#X connect 0 0 21 0;
#X connect 1 0 2 0;
#X connect 2 0 10 0;
#X connect 3 0 1 0;
#X connect 4 0 3 1;
#X connect 7 0 9 1;
#X connect 9 0 20 0;
#X connect 10 0 9 0;
#X connect 13 0 11 0;
#X connect 13 0 10 1;
#X connect 14 0 17 0;
#X connect 16 0 3 0;
#X connect 16 0 4 0;
#X connect 16 0 12 0;
#X connect 17 0 18 0;
#X connect 18 0 15 0;
#X connect 18 0 16 0;
#X connect 19 0 13 0;
#X connect 20 0 6 0;
#X connect 20 0 22 0;
#X connect 21 0 16 1;
#X connect 22 0 23 0;
#X restore 301 14 pd brks;
#X text 23 172 engine;
#X text 98 171 motor;
#X text 163 171 wheels;
#X text 237 171 clatter;
#X text 311 170 brakes;
#X text 384 170 air;
#X text 459 170 MASTER;
#N canvas 356 147 450 392 master 0;
#X obj 153 18 inlet~;
#X obj 113 324 outlet~;
#X obj 406 42 inlet;
#X text 403 17 on/off;
#X obj 370 99 *~;
#X obj 330 25 noise~;
#X obj 330 61 *~ 0.002;
#X obj 202 323 pvu~;
#X obj 202 349 outlet;
#X connect 0 0 1 0;
#X connect 0 0 7 0;
#X connect 2 0 4 1;
#X connect 5 0 6 0;
#X connect 6 0 4 0;
#X connect 7 0 8 0;
#X restore 450 14 pd master, f 11;
#X connect 2 0 18 1;
#X connect 2 0 17 1;
#X connect 2 0 21 1;
#X connect 2 0 19 1;
#X connect 3 0 29 0;
#X connect 3 1 16 0;
#X connect 4 0 3 0;
#X connect 5 0 20 0;
#X connect 7 0 19 0;
#X connect 9 0 18 0;
#X connect 11 0 17 0;
#X connect 13 0 21 0;
#X connect 17 0 29 0;
#X connect 17 1 12 0;
#X connect 18 0 29 0;
#X connect 18 1 10 0;
#X connect 19 0 29 0;
#X connect 19 1 8 0;
#X connect 20 0 29 0;
#X connect 20 1 6 0;
#X connect 21 0 29 0;
#X connect 21 1 14 0;
#X connect 29 0 0 1;
#X connect 29 0 0 0;
#X connect 29 1 15 0;
#X coords 0 0 1 1 85 60 0;
