#N canvas 454 182 753 562 12;
#X obj 191 201 karplusStrongSynthesis;
#X obj 368 138 send noteValue;
#X obj 368 194 send lowpassfreq;
#X obj 369 253 send decay;
#X obj 373 298 hsl 128 15 0 3000 0 0 empty empty empty -2 -8 0 10 -260097
-1 -1 0 1;
#X obj 408 317 send pluckpos;
#X floatatom 370 318 5 0 0 0 - - -, f 5;
#X text 67 355 Audio Output;
#X msg 367 115 8;
#X msg 369 229 17;
#X msg 367 167 20;
#X obj 333 64 loadbang;
#X obj 282 411 tgl 21 0 empty empty empty 17 7 0 10 -262144 -1 -1 1
1;
#X obj 306 411 vu 15 120 empty empty -1 -8 0 10 -66577 -1 1 0;
#X text 293 382 WHEELS;
#X obj 66 380 send~ wheels;
#X obj 296 336 pvu~;
#X obj 191 168 receive wheelBump;
#X obj 178 326 *~;
#X floatatom 418 103 5 0 0 0 - - -, f 5;
#X obj 191 227 lop~ 200;
#X obj 586 96 receive speed;
#X floatatom 543 278 5 0 0 0 - - -, f 5;
#X obj 512 228 * 27;
#X obj 191 268 *~ 1;
#X connect 0 0 20 0;
#X connect 4 0 5 0;
#X connect 4 0 6 0;
#X connect 8 0 1 0;
#X connect 9 0 3 0;
#X connect 10 0 2 0;
#X connect 11 0 8 0;
#X connect 11 0 6 0;
#X connect 11 0 9 0;
#X connect 11 0 10 0;
#X connect 12 0 18 1;
#X connect 16 0 13 0;
#X connect 17 0 0 0;
#X connect 18 0 15 0;
#X connect 19 0 1 0;
#X connect 20 0 24 0;
#X connect 21 0 23 0;
#X connect 23 0 22 0;
#X connect 23 0 3 0;
#X connect 24 0 16 0;
#X connect 24 0 18 0;
#X coords 0 -1 1 1 80 160 2 277 380;
